<svg width="32" height="32" viewBox="0 0 32 32" fill="none" xmlns="http://www.w3.org/2000/svg">
  <!-- Background with gradient -->
  <rect width="32" height="32" rx="8" fill="url(#gradient)" />
  
  <!-- Calendar icon -->
  <path d="M8 12h16v12c0 1.1-.9 2-2 2H10c-1.1 0-2-.9-2-2V12z" fill="white" opacity="0.9"/>
  <path d="M8 12h16V10c0-1.1-.9-2-2-2H10c-1.1 0-2 .9-2 2v2z" fill="white" opacity="0.7"/>
  <rect x="8" y="8" width="16" height="2" rx="1" fill="white"/>
  
  <!-- Calendar grid lines -->
  <path d="M11 15h10M11 18h10M11 21h10" stroke="url(#gradient)" stroke-width="1" opacity="0.6"/>
  <path d="M14 12v12M18 12v12" stroke="url(#gradient)" stroke-width="1" opacity="0.6"/>
  
  <!-- Availability dots -->
  <circle cx="12" cy="16" r="1.5" fill="#10b981" opacity="0.8"/>
  <circle cx="16" cy="19" r="1.5" fill="#10b981" opacity="0.8"/>
  <circle cx="20" cy="22" r="1.5" fill="#10b981" opacity="0.8"/>
  
  <!-- Sparkle effect -->
  <circle cx="24" cy="10" r="1" fill="white" opacity="0.6"/>
  <path d="M25 8l1 1-1 1-1-1z" fill="white" opacity="0.4"/>
  
  <defs>
    <linearGradient id="gradient" x1="0%" y1="0%" x2="100%" y2="100%">
      <stop offset="0%" style="stop-color:#8b5cf6"/>
      <stop offset="50%" style="stop-color:#6366f1"/>
      <stop offset="100%" style="stop-color:#3b82f6"/>
    </linearGradient>
  </defs>
</svg>
